<svg xmlns:x="http://ns.adobe.com/Extensibility/1.0/" xmlns:i="http://ns.adobe.com/AdobeIllustrator/10.0/" xmlns:graph="http://ns.adobe.com/Graphs/1.0/" xmlns="http://www.w3.org/2000/svg" xmlns:xlink="http://www.w3.org/1999/xlink" version="1.1" x="0px" y="0px" viewBox="0 0 64 80" enable-background="new 0 0 64 64" xml:space="preserve"><metadata><sfw xmlns="http://ns.adobe.com/SaveForWeb/1.0/"><slices/><sliceSourceBounds y="-8160" x="-8165" width="16389" height="16384" bottomLeftOrigin="true"/></sfw></metadata><g><g><path d="M19.001,28.584c-2.273,0-4.346,0.854-5.932,2.249c1.607-5.177,4.89-9.788,8.867-11.952c0.485-0.264,0.665-0.871,0.4-1.356    c-0.263-0.484-0.87-0.664-1.356-0.4c-6.259,3.405-10.979,12.201-10.979,20.459c0,4.963,4.038,9,9,9s9-4.037,9-9    C28.001,32.622,23.964,28.584,19.001,28.584z"/><path d="M44.002,28.584c-2.273,0-4.346,0.854-5.932,2.249c1.607-5.177,4.89-9.788,8.866-11.952c0.485-0.264,0.665-0.871,0.4-1.356    c-0.263-0.484-0.871-0.664-1.355-0.4c-6.26,3.405-10.979,12.201-10.979,20.459c0,4.963,4.037,9,9,9s9-4.037,9-9    C53.002,32.622,48.965,28.584,44.002,28.584z"/></g></g>
</svg>